<svg width="32" height="32" viewBox="0 0 32 32" fill="none" xmlns="http://www.w3.org/2000/svg">
<rect width="32" height="32" fill="#FFFEFA"/>
<path d="M6.58621 15L4.64434 11.4754H4.09902V15H1.82463V5.66305H5.64187C6.37783 5.66305 7.00296 5.79162 7.51724 6.04877C8.0404 6.30591 8.43054 6.66059 8.68769 7.11281C8.94483 7.55616 9.0734 8.05271 9.0734 8.60246C9.0734 9.22315 8.89606 9.77734 8.54138 10.265C8.19557 10.7527 7.68128 11.0985 6.99852 11.3025L9.1532 15H6.58621ZM4.09902 9.86601H5.50887C5.92562 9.86601 6.23596 9.76404 6.4399 9.5601C6.65271 9.35616 6.75911 9.06798 6.75911 8.69556C6.75911 8.34089 6.65271 8.06158 6.4399 7.85763C6.23596 7.65369 5.92562 7.55172 5.50887 7.55172H4.09902V9.86601ZM16.1804 13.3507H12.6957L12.1371 15H9.7563L13.1346 5.66305H15.7681L19.1464 15H16.7391L16.1804 13.3507ZM15.5952 11.5951L14.4381 8.17685L13.2942 11.5951H15.5952ZM30.6155 5.66305V15H28.3411V9.40049L26.253 15H24.4175L22.316 9.38719V15H20.0416V5.66305H22.7283L25.3485 12.1271L27.9421 5.66305H30.6155Z" fill="#282828"/>
<rect x="1" y="17.001" width="9.99899" height="9.99899" fill="#FF0000"/>
<rect x="10.999" y="17" width="9.99899" height="9.99899" fill="#2ED62E"/>
<rect x="20.9979" y="17" width="9.99899" height="9.99899" fill="#00A3FF"/>
</svg>
